<?xml version="1.0" encoding="UTF-8" standalone="no"?>
<svg
   xmlns:dc="http://purl.org/dc/elements/1.1/"
   xmlns:cc="http://creativecommons.org/ns#"
   xmlns:rdf="http://www.w3.org/1999/02/22-rdf-syntax-ns#"
   xmlns:svg="http://www.w3.org/2000/svg"
   xmlns="http://www.w3.org/2000/svg"
   viewBox="0 0 533.33331 591.49249"
   height="591.49249"
   width="533.33331"
   xml:space="preserve"
   id="svg2"
   version="1.1"><metadata
     id="metadata8"><rdf:RDF><cc:Work
         rdf:about=""><dc:format>image/svg+xml</dc:format><dc:type
           rdf:resource="http://purl.org/dc/dcmitype/StillImage" /></cc:Work></rdf:RDF></metadata><defs
     id="defs6" /><g
     transform="matrix(1.3333333,0,0,-1.3333333,0,591.49251)"
     id="g10"><g
       id="g12"><path
         id="path14"
         style="fill:#04092a;fill-opacity:1;fill-rule:nonzero;stroke:none"
         d="m 254.9532,385.62143 -4.57983,-0.46997 v 3.76486 l 4.57983,-0.47 -0.44998,4.72485 h 3.6599 l -0.45499,-4.70483 4.57983,0.46997 v -3.76486 l -4.5848,0.44998 0.45495,-4.70984 h -3.65489 z m 1.37499,-36.49872 c 1.89492,0 3.43487,9.92465 3.43487,14.86948 0,2.69992 -1.53995,4.46985 -3.43487,4.46985 -1.89493,0 -3.43491,-1.76993 -3.43491,-4.46985 0,-4.94483 1.53497,-14.86948 3.43491,-14.86948 z m 17.09936,-7.8797 c 1.21997,3.82987 2.59491,9.64966 2.59491,12.45957 0,5.1398 -2.84488,10.82458 -12.83954,12.56954 0,-6.31979 -2.99988,-21.40927 -6.64975,-21.40927 h -0.41 c -3.63986,0 -6.64977,15.20447 -6.64977,21.40927 -9.96464,-1.74993 -12.72456,-7.43475 -12.72456,-12.56954 0,-2.80991 1.37497,-8.6297 2.58992,-12.45957 z m -17.09936,30.2789 c 0.56167,-0.0149 1.11502,0.138 1.58932,0.43921 0.47434,0.30121 0.84805,0.737 1.0734,1.25171 0.22534,0.51468 0.29208,1.08487 0.19171,1.63769 -0.10038,0.55283 -0.36335,1.06318 -0.75525,1.46576 -0.39194,0.40262 -0.89499,0.6792 -1.44492,0.79444 -0.54992,0.1152 -1.12173,0.0638 -1.64229,-0.14762 -0.52057,-0.21142 -0.96626,-0.57327 -1.28012,-1.03933 -0.31384,-0.46604 -0.48158,-1.01508 -0.48178,-1.57694 -0.005,-0.36615 0.0617,-0.72973 0.19708,-1.06998 0.13541,-0.3402 0.33657,-0.65042 0.592,-0.91277 0.25542,-0.26239 0.56007,-0.47187 0.89654,-0.61637 0.33646,-0.1445 0.69816,-0.22122 1.06431,-0.2258 z m 14.3095,-37.70865 c 0,0 0.70496,1.73496 1.60492,4.23484 h -31.71389 c 0.89496,-2.49988 1.59994,-4.23484 1.59994,-4.23484 z m 47.36332,-18.12936 c 0,0 0.38998,8.5347 4.59485,12.68954 0,0 1.27493,-3.83487 6.08978,-4.72482 -6.58478,7.45474 1.44995,18.64935 4.66983,23.46417 2.53491,3.78485 1.83493,6.44977 1.08496,7.52472 -2.41992,3.44489 -7.92471,2.27493 -12.99954,2.31995 8.31469,-5.61481 -0.17002,-12.99957 -4.31986,-22.60922 -4.14984,-9.60965 0.87998,-18.66434 0.87998,-18.66434 z m -9.29966,49.70825 c 8.69968,-7.93472 13.35953,-5.7298 20.27927,-5.9548 6.91977,-0.22498 7.70972,-3.20987 7.70972,-3.20987 h 0.225 c -0.36999,4.94983 -8.6347,3.54986 -16.67944,8.85968 -5.6998,3.76987 -9.09463,9.03467 -11.60455,11.0346 -2.50992,1.99994 -9.81967,0.45499 -15.05948,-2.95989 0,0 4.87482,1.59994 15.14447,-7.76972 h -0.015 z m -35.32879,-31.62891 c 8.37472,0 16.53943,5.58982 19.78934,17.28443 3.24987,11.69458 11.54455,13.6195 11.54455,13.6195 -1.79993,1.99994 -10.03961,7.9997 -13.31949,5.73481 0,0 -3.17489,-1.66996 -4.46985,-14.62451 -1.28497,-12.86454 -8.15472,-19.81427 -13.02453,-20.42426 z m -55.77303,23.39921 h -11.5946 c 3.88986,-18.09937 18.47435,-23.2992 33.64882,-23.2992 l -0.49999,1.35495 c -11.81958,0 -19.4743,8.90469 -21.53923,21.94425 z m -75.75233,23.76916 h 3.65986 l -0.44998,4.68982 4.57985,-0.46997 v 3.76486 l -4.57985,-0.47 0.45499,4.70483 h -3.66487 l 0.45997,-4.70483 -4.57983,0.47 v -3.76486 l 4.57983,0.46997 z m 1.83493,-31.8089 c 1.89494,0 3.43487,9.92465 3.43487,14.86948 0,2.69992 -1.53993,4.46985 -3.43487,4.46985 -1.89493,0 -3.43488,-1.76993 -3.43488,-4.46985 0,-4.94483 1.53995,-14.86948 3.43488,-14.86948 z m 16.9994,-7.8797 c 1.21495,3.82987 2.58991,9.64966 2.58991,12.45957 0,5.13479 -2.7599,10.81961 -12.72457,12.56954 0,-6.2048 -2.99987,-21.40927 -6.64974,-21.40927 h -0.40999 c -3.63988,0 -6.64977,15.08948 -6.64977,21.40927 -9.99965,-1.74496 -12.83955,-7.42974 -12.83955,-12.56954 0,-2.80991 1.37495,-8.6297 2.59491,-12.45957 z m -16.9994,30.2789 c 0.56167,-0.0149 1.11502,0.138 1.58934,0.43921 0.4743,0.30121 0.84802,0.737 1.07338,1.25171 0.22536,0.51468 0.29211,1.08487 0.19174,1.63769 -0.10039,0.55283 -0.36336,1.06318 -0.75528,1.46576 -0.39191,0.40262 -0.89497,0.6792 -1.4449,0.79444 -0.54993,0.1152 -1.12172,0.0638 -1.64227,-0.14762 -0.52057,-0.21142 -0.96628,-0.57327 -1.28012,-1.03933 -0.31386,-0.46604 -0.48159,-1.01508 -0.48178,-1.57694 -0.009,-0.7391 0.27497,-1.45169 0.79055,-1.98132 0.51558,-0.52963 1.22026,-0.83304 1.95934,-0.8436 z m -14.3145,-37.70865 h 28.49901 c 0,0 0.70497,1.73496 1.59994,4.23484 h -31.69889 c 0.89997,-2.49988 1.59994,-4.23484 1.59994,-4.23484 z m -51.968163,-5.43982 c 4.20485,-4.15484 4.594834,-12.68954 4.594834,-12.68954 0,0 5.039825,9.04468 0.884971,18.66434 -4.154853,9.61966 -12.634552,16.99942 -4.319847,22.60922 -5.079818,-0.045 -10.584625,1.12494 -12.999542,-2.31995 -0.749969,-1.07495 -1.449951,-3.73987 1.084961,-7.52472 3.219887,-4.81482 11.254601,-15.99945 4.669838,-23.46417 4.80983,0.88995 6.084785,4.72482 6.084785,4.72482 z m -6.389778,31.06391 c 6.919754,0.225 11.57959,-1.99991 20.279282,5.9548 10.269649,9.36966 15.144479,7.76972 15.144479,7.76972 -5.23982,3.41488 -12.549569,4.92983 -15.05948,2.95989 -2.509911,-1.96993 -5.904793,-7.26473 -11.614586,-11.0346 -8.049721,-5.30982 -16.31443,-3.90985 -16.684414,-8.85968 h 0.224991 c 0,0 0.794972,2.97989 7.709728,3.20987 z m 24.274147,5.22982 c 0,0 8.299704,-1.92492 11.544594,-13.6195 3.24488,-11.69461 11.4146,-17.28443 19.7893,-17.28443 l -0.49998,1.58997 c -4.86982,0.60999 -11.73959,7.55972 -13.02454,20.42426 -1.29495,12.95455 -4.46985,14.62451 -4.46985,14.62451 -3.29488,2.26989 -11.534592,-3.72489 -13.334526,-5.73481 h -0.005 z m 65.592694,-29.44897 -0.49999,-1.35495 c 15.17447,0 29.75896,5.19983 33.64882,23.2992 H 182.39577 C 180.33084,344.12289 172.6761,335.2182 160.88153,335.2182 Z M 51.510376,249.29623 c -7.669727,5.08983 -12.999542,9.82969 -15.824444,14.04953 -6.409773,2.49988 -14.69948,6.29975 -18.784336,9.72962 -5.609803,4.70984 -3.829864,8.9497 -3.179888,9.79468 4.939827,-5.04483 15.63945,-12.31458 23.239184,-15.54944 4.744831,1.84991 11.334602,3.19989 17.754375,3.99985 -19.029331,7.49972 -39.463612,21.63925 -50.138236,34.94876 -2.164924,-4.20484 -10.959614,-23.99915 5.529805,-40.20356 8.684695,-8.54971 26.569064,-14.43951 41.40354,-16.76944 z m 3.204891,25.52909 c -2.599911,4.99984 -5.134823,11.70959 -5.46981,17.49939 -7.88472,6.1998 -16.889405,14.08453 -22.094221,23.09918 -2.999896,5.20483 -1.899933,9.77466 0.229991,11.3446 1.624943,-5.65979 12.214571,-21.4992 21.814234,-29.45395 0.08763,5.17911 0.845566,10.32505 2.254917,15.30948 -11.159607,12.14456 -23.669164,32.26386 -26.689058,40.14856 -3.399881,-2.81488 -9.254674,-9.88965 -10.689624,-19.86429 -1.434949,-9.97464 1.804937,-20.34927 9.66966,-30.64892 6.049786,-7.92471 19.364319,-19.73929 30.973911,-27.43405 z M 39.765793,225.59708 c 5.353248,0.0241 10.698685,0.41169 15.999435,1.15997 -5.089821,1.72993 -11.364601,4.34984 -15.444454,6.94473 -5.099823,0.10001 -11.99958,0.245 -16.464424,1.60495 -6.539768,1.99993 -6.444773,6.47476 -6.329777,7.49973 5.654803,-2.27492 15.264462,-4.44983 22.369213,-4.86981 3.362442,3.07481 7.025769,5.80346 10.934616,8.14471 -16.859409,-0.145 -38.383648,6.52977 -50.498222,12.93454 -2.764903,-22.49921 12.49956,-29.27898 17.31439,-30.83392 5.059822,-1.64994 13.119539,-2.5849 22.119223,-2.5849 z m 26.414062,-17.99936 c -6.624763,0.84996 -12.999538,2.41992 -14.474483,3.03489 -3.449879,-0.99997 -11.699593,-2.37492 -14.379498,-2.22493 -6.079784,0.32999 -6.729761,4.99982 -6.729761,4.99982 0,0 10.944617,-0.46498 19.704306,1.49995 1.845657,3.0805 3.953384,5.99617 6.299778,8.7147 -8.964684,-2.46991 -27.274038,-4.40985 -44.863419,-1.66994 0.354988,-7.24475 7.399739,-21.06427 23.179184,-21.06427 8.484699,-0.025 21.979225,3.40988 31.263893,6.70477 v 0.005 z M 68.34478,191.2283 c -1.084961,-0.72998 -5.879787,-3.75989 -9.869648,-4.26486 -7.274742,-0.91998 -8.04472,3.57986 -8.04472,3.57986 5.273941,0.7314 10.404854,2.26578 15.21447,4.54985 0.462448,3.34765 1.191399,6.65303 2.179924,9.88466 -11.229606,-6.25477 -29.548961,-10.65463 -40.41358,-10.79962 2.174923,-5.16482 10.604624,-15.99945 21.289248,-15.99945 9.874653,0 23.999157,7.60474 31.93388,13.25453 -2.519913,-0.49998 -9.12468,-0.64496 -12.289574,-0.20997 z m 29.663956,-11.09961 c -3.252686,-1.02688 -6.604325,-1.70895 -9.999642,-2.03494 0,0 -3.824867,-4.84982 -7.334747,-4.84982 -0.809692,-3.4e-4 -1.605286,0.21191 -2.307221,0.61554 -0.701927,0.40359 -1.285598,0.98443 -1.692634,1.68438 0,0 4.49984,2.16993 7.399742,5.24482 -0.632851,2.80682 -0.968025,5.67257 -0.999969,8.54969 -7.804718,-7.83973 -22.469208,-15.45945 -32.713849,-16.9344 1.999928,-4.22485 9.219674,-10.86462 18.224354,-10.86462 11.674591,0.025 23.794167,11.4996 29.423966,18.58935 z M 133.2325,169.30905 c -3.07489,-0.75998 -8.07972,-4.78979 -8.07972,-4.78979 -0.50533,-1.26847 -0.81062,-2.60773 -0.90497,-3.96988 -2.14992,-0.38498 -3.33488,1.26992 -2.44491,4.72482 -1.01198,1.21338 -1.83305,2.57397 -2.43491,4.03485 -3.22488,-6.80475 -2.46491,-17.28937 7.79973,-17.58435 -0.87997,7.44971 2.46491,14.43445 6.03977,17.60934 l 0.025,-0.025 z m -24.64913,-0.99997 c -2.70491,-5.22479 -6.49977,-3.19485 -6.62477,-2.45489 0.93274,1.07452 1.76926,2.22891 2.49991,3.44986 -1.23018,2.38836 -2.33334,4.84002 -3.30488,7.34475 -3.859868,-8.13473 -10.959614,-16.39944 -16.899403,-19.62433 3.499878,-4.8598 14.334488,-5.84979 21.089253,-1.43994 4.54484,2.96491 7.41974,8.35471 10.69462,14.94449 -2.42428,-0.94522 -4.92723,-1.67468 -7.47973,-2.17993 l 0.025,-0.04 z m 70.08753,86.31697 c 2.67489,-4.29985 5.05482,-9.49966 5.87979,-14.0795 2.56491,3.10489 5.27481,8.4997 7.10976,14.93947 2.2499,-2.8099 6.17977,-8.5397 8.34469,-13.26953 2.16493,4.72983 6.09479,10.45963 8.34471,13.26953 1.83493,-6.44478 4.54485,-11.83458 7.10976,-14.93947 0.82497,4.60483 3.20488,9.77965 5.87979,14.0795 2.03493,-8.3697 9.87965,-16.49942 17.99936,-17.12439 -5.26981,6.83975 -5.4998,18.66436 -5.11482,22.5992 -3.49988,5.4548 -5.8198,10.37961 -6.91976,13.72452 -2.38491,-2.35492 -6.05978,-6.92975 -9.36467,-12.21457 -0.14146,4.89264 -0.61251,9.7702 -1.40995,14.59949 -3.40488,-3.0799 -9.56966,-5.30484 -12.86454,-6.1698 -1.55032,-3.31015 -2.77601,-6.76285 -3.65988,-10.30964 -0.87832,3.54093 -2.0973,6.98856 -3.63986,10.29465 -3.29489,0.86496 -9.45967,3.08991 -12.86456,6.1698 -0.79744,-4.82928 -1.26848,-9.70685 -1.40993,-14.59949 -3.30489,5.28479 -6.99977,9.85962 -9.36469,12.21454 -1.10495,-3.34485 -3.41487,-8.26968 -6.91975,-13.72448 0.37499,-3.93488 0.155,-15.75946 -5.11482,-22.59922 8.09971,0.60997 15.94443,8.75469 17.97937,17.13939 z m 60.96785,41.81853 c -3.18489,-4.24484 -8.20972,-6.65976 -15.29447,-5.96979 0,0 3.30489,5.52979 3.89487,10.33963 -3.30489,-3.25488 -10.65962,-4.36984 -15.22946,-3.90988 0,0 -5.38481,-8.45968 -8.52969,-21.73419 4.67483,1.41492 11.58457,5.40979 14.91445,8.58966 0.61499,-2.92987 1.31997,-6.99973 1.71996,-10.26962 2.55522,3.27658 5.28752,6.41116 8.18471,9.38968 1.27495,-5.59479 3.25488,-12.58954 7.71472,-18.80933 -0.86498,6.30975 0.49998,17.59936 3.28989,23.67914 0.45999,3.50989 0.19998,6.22479 -0.66498,8.67968 v 0.015 z m -79.2722,0 c -0.86498,-2.4549 -1.11997,-5.1698 -0.65999,-8.6947 2.79991,-6.07978 4.14987,-17.36939 3.2899,-23.67914 4.45483,6.21979 6.43477,13.21454 7.71472,18.80933 2.89717,-2.97852 5.62949,-6.1131 8.18471,-9.38968 0.39998,3.28488 1.10496,7.33975 1.71994,10.26962 3.32988,-3.17987 10.23964,-7.17474 14.91447,-8.58966 -3.14489,13.25952 -8.5247,21.71921 -8.5247,21.71921 -4.56984,-0.46 -11.92458,0.655 -15.23447,3.90988 0.58998,-4.80985 3.89986,-10.33966 3.89986,-10.33966 -7.09474,-0.68994 -12.11456,1.72494 -15.30444,5.96978 v 0.015 z m 48.78328,40.25858 c 6.49977,-3.20487 16.7944,-6.38978 31.99887,-6.38978 l 27.75904,-0.075 c 1.60993,0 2.20991,-0.99997 1.68494,-2.8049 -5.55981,-18.78433 -20.71928,-23.23917 -26.70907,-31.3739 0,0 0.045,2.53494 -2.73491,8.58472 -1.88494,-3.10987 -6.99976,-8.9347 -10.33464,-9.67966 0.79496,1.67496 1.73994,8.2897 0.99997,12.73453 -7.85473,-6.88474 -17.54438,-8.23969 -22.7392,-4.26483 4.42485,-0.16999 10.18465,4.76483 13.08954,9.14468 -4.05486,-0.93997 -9.62467,0.025 -10.77463,1.19495 2.55492,0.62497 5.6598,2.8999 7.52475,5.05984 -2.8699,0.19998 -9.10469,2.55991 -10.88962,5.88477 2.49991,-0.56995 6.20978,0.45501 8.61969,1.73495 -1.80994,0.97995 -6.39477,5.90979 -7.49473,10.23465 v 0.015 z m 37.45369,-12.12458 c 0,-0.90997 1.21495,-1.18997 5.4998,-2.8999 4.28483,-1.70993 6.45979,-3.99985 6.45979,-3.99985 l 2.72488,4.49985 c 0.66001,1.09494 0.86496,2.4299 -1.35495,2.4299 z m 51.08319,-33.4638 c 0.24499,0.32498 -0.035,0.36496 -0.22998,0.23996 -0.19501,-0.125 -4.91983,-2.90985 -15.17948,3.75988 -10.25964,6.66977 -18.18435,9.49967 -22.2792,10.13965 0,0 -3.84989,-2.7399 -7.35976,-5.80981 9.57466,-0.81494 17.0844,-6.67475 17.94438,-8.69968 0.08,-0.185 0.28,-0.19 0.34,0 0.60538,1.8859 0.48956,3.92935 -0.32498,5.73477 0,0 4.45984,-2.74988 13.10455,-7.80969 8.64468,-5.05981 12.58954,0.57498 13.98447,2.42993 v 0.015 z m -2.92987,27.05905 c 5.78479,-7.96973 -2.21494,-16.69443 -2.7099,-17.29941 -0.34501,-0.42499 -0.64499,-0.23001 -0.59498,0.24499 0.05,0.47498 -4.15988,12.69956 -28.36404,6.22977 -0.49997,-0.13998 -0.83496,-0.14999 -0.34997,0.34998 4.47482,3.5549 9.77963,11.49963 11.49957,17.9194 -0.01,0.005 14.73453,0.50497 20.51932,-7.45975 v 0.015 z m -12.99955,1.66491 c 0,2.22492 -3.23489,2.83991 -5.08981,2.83991 -0.44162,-1.16098 -0.98892,-2.27896 -1.63495,-3.33987 1.90991,0.82995 4.52982,0.91494 6.74976,0.48498 l -0.025,0.015 z m -179.4337,-28.73895 c 1.39495,-1.85495 5.33481,-7.49975 13.99951,-2.45495 8.66469,5.04486 13.10453,7.80975 13.10453,7.80975 -0.8162,-1.80481 -0.93378,-3.84827 -0.32999,-5.7348 0.06,-0.18 0.26498,-0.17499 0.34499,0 0.85997,2.0249 8.36972,7.8847 17.94438,8.69967 -3.49988,3.06992 -7.36475,5.80979 -7.36475,5.80979 -4.08986,-0.65998 -11.99959,-3.46485 -22.27422,-10.13965 -10.27464,-6.67474 -14.99947,-3.88483 -15.18446,-3.75983 -0.18499,0.125 -0.48498,0.095 -0.23999,-0.22998 z m 56.498,39.19861 c 15.22947,0 25.4991,3.18488 31.99888,6.38977 -1.09997,-4.32486 -5.68979,-9.2547 -7.52973,-10.24963 2.41492,-1.27997 6.12479,-2.30493 8.6247,-1.73496 -1.78495,-3.32489 -7.99973,-5.68478 -10.89463,-5.88479 1.86994,-2.15991 4.96982,-4.43485 7.52974,-5.05982 -1.14996,-1.16998 -6.72476,-2.13495 -10.77461,-1.19494 2.89989,-4.37986 8.66469,-9.3147 13.08952,-9.14472 -5.19981,-3.97485 -14.88447,-2.61987 -22.73919,4.26486 -0.73998,-4.44485 0.20999,-11.0596 0.99997,-12.73452 -3.3299,0.74493 -8.44971,6.56976 -10.33965,9.67962 -2.7749,-6.04974 -2.73489,-8.58468 -2.73489,-8.58468 -5.99979,8.13473 -21.14426,12.58956 -26.70407,31.3739 -0.52997,1.77993 0.075,2.8049 1.68493,2.8049 l 27.78903,0.075 z m -5.41481,-5.7348 h -13.34951 c -2.22493,0 -1.99994,-1.33496 -1.35996,-2.42993 l 2.72989,-4.49982 c 0,0 2.15494,2.30991 6.45979,3.99985 4.30484,1.68994 5.51979,2.01993 5.51979,2.9299 z m -27.62902,1.05993 c 1.71494,-6.40475 6.99975,-14.36447 11.4996,-17.91937 0.49998,-0.49997 0.17,-0.49997 -0.34499,-0.34997 -24.21415,6.44976 -28.424,-5.83979 -28.379,-6.22977 0.045,-0.38998 -0.24499,-0.66998 -0.58998,-0.24499 -0.49998,0.60498 -8.499698,9.32968 -2.7099,17.29937 5.78979,7.96973 20.52427,7.44473 20.52427,7.44473 z m -0.82497,-6.27975 c -0.64822,1.05972 -1.19559,2.17789 -1.63494,3.33987 -1.85494,0 -5.08982,-0.61499 -5.08982,-2.8399 2.21992,0.40997 4.83983,0.32498 6.72476,-0.51999 v 0.02 z m 75.05235,62.32779 c 2.99989,0 6.82977,12.44455 7.81473,24.21915 0,2.38491 -2.99989,6.02978 -7.81473,6.12478 -4.83482,-0.095 -7.81973,-3.73987 -7.81973,-6.12478 0.86497,-10.98462 4.88484,-24.21915 7.81973,-24.21915 z m 23.46918,-8.4697 c 0.99997,1.24497 5.96478,10.8696 5.96478,20.58927 0,8.74469 -10.9696,13.55954 -17.49937,13.77951 -0.75498,-12.49954 -5.6098,-32.10385 -11.93959,-32.10385 -5.99979,0 -11.19461,19.49929 -11.93958,32.10385 -6.52478,-0.21997 -17.49939,-5.03482 -17.49939,-13.77951 0,-9.71967 4.96485,-19.3443 5.9648,-20.58927 z m -2.31993,-4.72482 c -0.0137,0.37863 -0.13861,0.74484 -0.35909,1.05298 -0.22046,0.30813 -0.52675,0.54456 -0.88067,0.67981 -0.35392,0.13522 -0.73983,0.1633 -1.10959,0.0807 -0.36977,-0.0826 -0.70705,-0.27219 -0.96979,-0.54517 -0.26274,-0.27298 -0.43933,-0.61728 -0.50774,-0.98993 -0.0684,-0.37265 -0.0256,-0.7572 0.12307,-1.10568 0.14866,-0.34851 0.39662,-0.64554 0.71295,-0.85407 0.31634,-0.20852 0.68706,-0.31933 1.06595,-0.3186 0.52028,0.0105 1.01513,0.22699 1.37602,0.6019 0.36087,0.37494 0.55827,0.87772 0.54889,1.39804 v 0 z m -38.76363,0 c -0.0137,0.37842 -0.13849,0.74442 -0.35872,1.05246 -0.22024,0.30801 -0.52623,0.54446 -0.87986,0.67987 -0.35364,0.13541 -0.73929,0.16379 -1.10894,0.0816 -0.36964,-0.0822 -0.70695,-0.27127 -0.96989,-0.54376 -0.26296,-0.27249 -0.43993,-0.6163 -0.5089,-0.98865 -0.069,-0.37234 -0.0269,-0.75671 0.12102,-1.10531 0.14792,-0.3486 0.3951,-0.64597 0.71078,-0.8551 0.31568,-0.20914 0.68592,-0.32077 1.06458,-0.32102 0.25806,0.005 0.51268,0.0599 0.74934,0.16287 0.23665,0.103 0.4507,0.25156 0.62992,0.43729 0.17921,0.18573 0.3201,0.40494 0.41458,0.64511 0.0945,0.24017 0.14073,0.49661 0.13609,0.75467 v 0 z m -1.94993,-7.38977 c 0.59172,-0.20319 1.21441,-0.30133 1.83993,-0.28998 h 35.44376 c 0.62559,-0.0122 1.24843,0.086 1.83993,0.28998 0.5641,0.20056 1.06073,0.55509 1.43366,1.02344 0.37291,0.46835 0.60719,1.0318 0.67627,1.62646 H 178.3309 c 0.0691,-0.59466 0.30336,-1.15811 0.67629,-1.62646 0.37291,-0.46835 0.86955,-0.82288 1.43364,-1.02344 z m 11.5946,7.38977 c -0.0137,0.37842 -0.13849,0.74442 -0.35873,1.05246 -0.22023,0.30801 -0.52623,0.54446 -0.87986,0.67987 -0.35363,0.13541 -0.7393,0.16379 -1.10894,0.0816 -0.36965,-0.0822 -0.70694,-0.27127 -0.9699,-0.54376 -0.26294,-0.27249 -0.43992,-0.6163 -0.50889,-0.98865 -0.069,-0.37234 -0.0269,-0.75671 0.12103,-1.10531 0.1479,-0.3486 0.39509,-0.64597 0.71078,-0.8551 0.31568,-0.20914 0.68592,-0.32077 1.06458,-0.32102 0.25806,0.005 0.51268,0.0599 0.74933,0.16287 0.23666,0.103 0.45071,0.25156 0.62993,0.43729 0.17921,0.18573 0.32009,0.40494 0.41458,0.64511 0.0945,0.24017 0.14073,0.49661 0.13609,0.75467 z m 5.5098,59.64288 h 4.91484 l -0.52999,5.99979 5.34481,-0.57498 v 4.69482 l -5.34481,-0.56997 0.52999,5.9498 h -4.91484 l 0.53,-5.9498 -5.34482,0.56997 v -4.71481 l 5.34482,0.59497 z m -1.16495,-7.93972 c 0.0294,-0.7074 0.26585,-1.3906 0.68005,-1.96479 0.4142,-0.57421 0.98792,-1.01413 1.64992,-1.26519 0.662,-0.25104 1.38315,-0.30216 2.07394,-0.14701 0.69082,0.15515 1.32084,0.50977 1.81189,1.01978 0.49108,0.51004 0.82155,1.15304 0.95043,1.84921 0.12887,0.6962 0.0505,1.41489 -0.22545,2.06689 -0.27596,0.65204 -0.73729,1.20865 -1.32677,1.60083 -0.58947,0.39216 -1.28114,0.60257 -1.98915,0.60514 -0.48369,-0.007 -0.96121,-0.10962 -1.40527,-0.30152 -0.44405,-0.19189 -0.8459,-0.46945 -1.18259,-0.81683 -0.33667,-0.34735 -0.60156,-0.75769 -0.77951,-1.20752 -0.17793,-0.4498 -0.26544,-0.9303 -0.25749,-1.414 v -0.025 z m 15.12446,-51.70316 c -0.0137,0.37842 -0.13848,0.74442 -0.35871,1.05246 -0.22025,0.30801 -0.52625,0.54446 -0.87987,0.67987 -0.35364,0.13541 -0.73931,0.16379 -1.10895,0.0816 -0.36964,-0.0822 -0.70694,-0.27127 -0.96989,-0.54376 -0.26294,-0.27249 -0.43993,-0.6163 -0.50888,-0.98865 -0.069,-0.37234 -0.0269,-0.75671 0.12101,-1.10531 0.14791,-0.3486 0.3951,-0.64597 0.71079,-0.8551 0.31567,-0.20914 0.68591,-0.32077 1.06457,-0.32102 0.25826,0.004 0.51317,0.0588 0.75013,0.16156 0.23696,0.10272 0.45127,0.25131 0.63063,0.43717 0.17935,0.18585 0.32019,0.40533 0.41444,0.64578 0.0942,0.24048 0.14003,0.49719 0.13473,0.75543 v 0 z m -9.73466,0 c -0.0137,0.37842 -0.13847,0.74442 -0.35872,1.05246 -0.22024,0.30801 -0.52623,0.54446 -0.87987,0.67987 -0.35363,0.13541 -0.73928,0.16379 -1.10893,0.0816 -0.36964,-0.0822 -0.70695,-0.27127 -0.96989,-0.54376 -0.26296,-0.27249 -0.43993,-0.6163 -0.5089,-0.98865 -0.069,-0.37234 -0.0269,-0.75671 0.12103,-1.10531 0.14791,-0.3486 0.3951,-0.64597 0.71077,-0.8551 0.31569,-0.20914 0.68592,-0.32077 1.06459,-0.32102 0.25847,0.004 0.51363,0.0588 0.75086,0.16147 0.23723,0.10269 0.45189,0.25116 0.63162,0.43695 0.17975,0.18579 0.32108,0.40521 0.41586,0.64572 0.0948,0.24048 0.14122,0.49732 0.13658,0.7558 h -0.005 z M 67.969795,267.79559 c -7.404739,-0.16998 -20.459278,-1.66995 -27.069046,-3.76989 4.499844,-5.4198 16.254433,-13.20452 23.299187,-16.49941 -5.474812,-2.08491 -15.299465,-7.36473 -19.399323,-11.1796 5.279816,-3.27487 16.874401,-6.99975 22.35421,-8.23471 -3.189888,-2.59491 -9.759655,-10.10463 -12.169571,-14.14949 4.53484,-1.41995 13.869507,-2.6549 19.794304,-2.99989 -1.899933,-3.96986 -4.06485,-10.99962 -4.634834,-15.54446 2.934898,-0.29999 12.744545,0.20999 17.604378,1.29995 -0.414986,-3.99986 -0.259987,-11.21959 0.399986,-14.33949 5.047447,0.83084 10.008049,2.12286 14.819484,3.85986 0.91996,-3.54989 4.21985,-11.1896 5.37481,-12.99954 4.09854,0.82059 8.06643,2.19483 11.79458,4.08487 1.17736,-2.83197 2.56624,-5.57129 4.15486,-8.19473 3.61987,3.66989 7.73472,5.1748 11.65458,5.1748 7.99973,0 14.2495,-6.05478 15.57445,-14.40448 0.40498,4.86985 0.73998,9.88968 0.90997,14.8245 -5.99978,12.59955 -20.49928,20.31428 -34.92377,4.59485 -0.17999,0.34497 -4.31484,6.79974 -5.99979,13.45451 -3.15989,-1.58495 -10.25464,-4.05486 -16.264425,-4.53484 -0.839965,4.46485 -1.499939,11.91957 -1.199951,16.73441 -5.747024,-0.0959 -11.491966,0.2904 -17.1744,1.15495 0.729973,5.02483 3.554878,12.30956 5.499809,16.30443 -3.954864,1.39494 -11.669594,4.44484 -15.219467,7.09975 2.399918,3.55487 7.784729,9.70965 10.999611,13.05954 -3.779869,2.96489 -9.814652,8.43969 -12.614555,11.96957 4.224853,3.21489 10.189643,6.09477 15.219467,7.99974 -3.499878,6.83972 -5.564804,18.04434 -4.999825,24.36414 -6.354774,6.63977 -16.194427,18.94931 -19.164325,26.44403 -4.424843,-12.33954 -3.949864,-35.08875 11.379596,-45.57337 z M 141.5722,102.06644 c 0.70498,-3.144901 1.38996,-7.414768 0.17501,-12.449588 6.28477,-0.459961 13.26452,3.059936 16.24942,9.364715 -4.67484,0.61496 -7.04476,3.054873 -8.26972,5.069823 -6.09478,0.32498 -12.77954,5.4198 -12.04957,13.64951 -6.25978,4.14483 -7.13475,14.89447 0,21.9992 3.38258,3.27039 7.78721,5.27762 12.47456,5.68482 0.2,1.94992 0.405,3.99985 0.60999,6.05478 -11.29961,0.74496 -22.27922,-2.84491 -27.17906,-13.03455 -4.76983,-9.90967 -4.36484,-17.88937 -12.87454,-23.23917 4.62984,-5.2098 12.72455,-3.92486 17.1644,-2.21993 0,0 0.49997,-8.22471 -3.36488,-13.369512 5.73479,-1.944946 11.64958,-1.414978 17.06439,2.489902 z m 28.37401,9.56466 c -2.14934,-1.04196 -4.53052,-1.5137 -6.91476,-1.36996 -2.18375,-3.03415 -5.42179,-5.14352 -9.07967,-5.9148 4.49484,-3.96985 15.07945,-2.4899 15.99443,7.28476 z m -19.13933,-4.13986 c 5.7948,0 9.73465,4.36984 10.59961,6.99976 -1.97847,-0.38721 -4.01004,-0.41934 -5.99978,-0.095 -0.61307,1.14959 -1.4758,2.14731 -2.5249,2.91986 -3.60315,-1.90189 -7.79505,-2.3613 -11.7246,-1.28494 0.1,-4.39985 3.92987,-8.52469 9.64967,-8.52469 v -0.015 z m -1.91993,24.63913 c 0.18499,2.66992 0.49998,5.9498 0.88997,9.72467 -7.21975,-0.89496 -13.60453,-6.30481 -13.60453,-13.89453 0,-5.81479 4.05486,-8.99969 9.08469,-8.99969 1.8205,0.0253 3.61685,0.42047 5.27995,1.16134 1.66312,0.74088 3.15828,1.81208 4.3947,3.14853 -2.17125,0.26813 -4.28694,0.87549 -6.26977,1.79993 0.23999,2.07495 -0.14,3.23489 -0.93497,4.02987 -1.44495,1.44495 -4.11986,0.99994 -5.72481,-0.64001 -0.32498,3.72989 4.17987,5.28982 6.88477,3.66989 z m 214.16246,135.19025 c 7.59973,3.23486 18.29938,10.49963 23.23919,15.54944 0.65497,-0.84498 2.42991,-5.08484 -3.1799,-9.79468 -4.08487,-3.42987 -12.37454,-7.23474 -18.78433,-9.72962 -2.82489,-4.21984 -8.14972,-8.9597 -15.82443,-14.04953 14.83447,2.32492 32.72384,8.2197 41.40353,16.76444 16.49942,16.21942 7.69474,35.99872 5.52982,40.20355 -10.67465,-13.30951 -31.10889,-27.42902 -50.13825,-34.94876 6.4198,-0.79495 13.01453,-2.14493 17.75437,-3.99484 z m 9.57968,59.44287 c 2.12991,-1.56992 3.23987,-6.13977 0.22998,-11.34461 -5.20483,-8.99966 -14.20447,-16.89935 -22.09421,-23.09915 -0.32999,-5.78479 -2.8699,-12.49954 -5.46982,-17.49939 11.60959,7.69474 24.92411,19.4993 30.97391,27.43405 7.86972,10.29963 11.11963,20.60926 9.67465,30.6489 -1.44494,10.03964 -7.29473,17.04941 -10.6896,19.86429 -2.99991,-7.88471 -15.53446,-27.99903 -26.69406,-40.14856 1.40976,-4.98605 2.16772,-10.13373 2.25491,-15.31449 9.59967,7.94974 20.1843,23.81919 21.81424,29.45896 z m 27.03906,-67.76758 c -12.09457,-6.40479 -33.61883,-13.07956 -50.49823,-12.93455 3.90885,-2.34125 7.57218,-5.06991 10.9346,-8.14472 7.10477,0.41998 16.71942,2.59491 22.3692,4.86983 0.11502,-0.99996 0.21,-5.4998 -6.32977,-7.49973 -4.43985,-1.35995 -11.36459,-1.49995 -16.46442,-1.60496 -4.07986,-2.5949 -10.35464,-5.2148 -15.44445,-6.94474 5.30075,-0.74822 10.64618,-1.13577 15.99942,-1.15997 8.99969,0 17.05441,0.93497 22.10424,2.56491 4.81482,1.57495 20.0943,8.35471 17.32941,30.85393 z m -56.25802,-35.39876 c 2.34637,-2.71852 4.4541,-5.6342 6.29974,-8.71469 8.76471,-1.94493 19.70434,-1.49995 19.70434,-1.49995 0,0 -0.64999,-4.66983 -6.72979,-4.99982 -2.6799,-0.14999 -10.92462,1.23495 -14.37949,2.22491 -1.45996,-0.61497 -7.84973,-2.1849 -14.46948,-3.03488 9.28467,-3.29489 22.7742,-6.72978 31.25891,-6.72978 15.77942,0 22.82419,13.81952 23.18417,21.06427 -17.59439,-2.71991 -35.90374,-0.77997 -44.8684,1.68994 z m -9.03971,-28.49899 c 4.80792,-2.28395 9.93714,-3.81834 15.20945,-4.54985 0,0 -0.76993,-4.49985 -8.04468,-3.57986 -3.99988,0.49996 -8.7797,3.53486 -9.86966,4.26484 -3.1399,-0.43498 -9.76966,-0.28999 -12.28958,0.22499 7.91973,-5.64981 22.05923,-13.25451 31.93386,-13.25451 10.68464,0 19.11435,10.8146 21.28928,15.99942 -10.86462,0.14498 -29.18399,4.54484 -40.41357,10.79962 0.98968,-3.24181 1.7203,-6.55712 2.1849,-9.91465 z m -18.36935,-14.2845 c 2.87491,-3.07489 7.39474,-5.24481 7.39474,-5.24481 -0.40664,-0.70029 -0.99023,-1.2814 -1.69223,-1.68506 -0.70202,-0.40366 -1.49783,-0.61569 -2.30765,-0.61484 -3.49987,0 -7.33972,4.84979 -7.33972,4.84979 -3.40448,0.31629 -6.7662,0.98999 -10.02966,2.00995 5.6098,-7.11474 17.7244,-18.58935 29.44397,-18.58935 8.99969,0 16.19943,6.63977 18.22437,10.86462 -10.24463,1.47495 -24.90912,9.09467 -32.71384,16.9344 -0.0273,-2.86802 -0.35578,-5.72529 -0.97998,-8.5247 z m -35.31876,-11.4996 c -0.60187,-1.46088 -1.42294,-2.82148 -2.4349,-4.03486 0.88995,-3.45489 -0.29502,-5.10983 -2.44492,-4.72485 -0.0944,1.36215 -0.39966,2.70142 -0.90497,3.96988 0,0 -4.99982,4.02985 -8.07971,4.78983 3.57486,-3.1749 6.91977,-10.15964 6.06479,-17.58435 10.24963,0.31497 11.00961,10.79959 7.78473,17.60433 l 0.015,-0.02 z m 18.23438,7.35476 c -0.96976,-2.5047 -2.07129,-4.95636 -3.2999,-7.34475 0.72711,-1.22327 1.56387,-2.378 2.49991,-3.44989 -0.10001,-0.73996 -3.92487,-2.76987 -6.62476,2.45492 -2.55771,0.52454 -5.06402,1.27408 -7.48974,2.23993 3.2749,-6.58978 6.14981,-11.9996 10.69964,-14.94449 6.75476,-4.40985 17.58936,-3.41989 21.08423,1.43994 -5.92477,3.22489 -13.01953,11.4896 -16.8844,19.62433 l 0.015,-0.02 z m 20.36425,85.89698 c 5.03486,-1.91495 10.99964,-4.79487 15.21949,-7.99975 -2.7999,-3.52987 -8.82968,-8.99967 -12.61457,-11.96957 3.19989,-3.34988 8.58472,-9.49966 10.99964,-13.05954 -3.54489,-2.65491 -11.26462,-5.7048 -15.21448,-7.09975 1.94495,-3.99986 4.76984,-11.2796 5.49982,-16.30442 -5.68698,-0.87029 -11.43695,-1.26165 -17.1894,-1.16996 0.31498,-4.81483 -0.36001,-12.26956 -1.19998,-16.7344 -5.99978,0.49997 -13.10452,2.94987 -16.2644,4.53482 -1.67496,-6.65477 -5.80979,-13.10954 -5.99979,-13.45451 -14.41449,15.71943 -28.93901,7.99969 -34.92381,-4.59485 0.17,-4.93482 0.49998,-9.95462 0.90997,-14.82447 1.32495,8.3497 7.57476,14.40448 15.57448,14.40448 3.91986,0 8.03974,-1.49994 11.6546,-5.17483 1.58771,2.617 2.97657,5.34964 4.15485,8.17474 3.72815,-1.89004 7.69601,-3.26428 11.79455,-4.08487 1.15998,1.81491 4.45487,9.45465 5.37482,12.99955 4.81143,-1.737 9.77204,-3.02903 14.81949,-3.85987 0.65997,3.11991 0.81998,10.35964 0.39999,14.33949 4.85981,-1.08996 14.6695,-1.59994 17.60938,-1.29995 -0.57498,4.56483 -2.7399,11.57458 -4.63983,15.54445 5.92477,0.34999 15.25946,1.58494 19.79431,2.99989 -2.40991,4.04486 -8.9997,11.55461 -12.16959,14.1495 5.49979,1.22497 17.07441,4.95984 22.35422,8.23472 -4.09485,3.81486 -13.91949,9.09468 -19.39932,11.17961 7.04477,3.30487 18.79934,11.0896 23.29916,16.49942 -6.62475,2.12991 -19.67428,3.62988 -27.08401,3.79986 15.32944,10.49964 15.80441,33.23383 11.38958,45.59839 -2.96991,-7.49972 -12.80957,-19.80432 -19.15933,-26.44409 0.55997,-6.32477 -1.48993,-17.52435 -5.00482,-24.36411 l 0.015,-0.02 z M 186.28563,96.651611 c 0,0 2.8849,-6.87973 6.30478,-9.134643 2.14993,0.754974 5.99978,4.324829 7.45472,8.034698 1.49996,-3.709869 5.30483,-7.279724 7.45475,-8.034698 3.41987,2.254913 6.30478,9.134643 6.30478,9.134643 0.87497,-2.954895 5.36482,-7.764709 11.2696,-7.329712 -5.24481,5.244812 -2.87989,19.499301 -0.71997,22.349211 -9.68965,0.36499 -17.67439,-1.99997 -24.30916,-13.834532 -6.62976,11.854582 -14.61947,14.199522 -24.30413,13.834532 2.15492,-2.8399 4.49984,-17.104399 -0.71997,-22.349211 5.85978,-0.415008 10.35464,4.394837 11.22461,7.349732 l 0.04,-0.02002 z m 41.95352,-16.6044 c -6.62477,0.285003 -12.09457,5.999786 -14.0945,9.554657 -2.19993,-3.649872 -6.12979,-6.499756 -6.12979,-6.499756 -2.79991,0.73996 -6.62477,3.789856 -7.96973,6.129791 -1.34495,-2.339935 -5.16979,-5.389831 -7.96969,-6.129791 0,0 -3.92488,2.849884 -6.12979,6.499756 -1.99994,-3.539856 -7.46974,-9.269654 -14.09451,-9.554657 0.94497,-1.409943 5.5698,-3.874848 9.92465,-1.884919 -0.65998,-2.404937 -0.87998,-5.379821 -0.4,-7.419769 2.4375,-0.110992 4.87282,0.262879 7.16477,1.099976 0.25998,-2.204926 1.47493,-5.79477 3.94485,-7.634705 1.95493,0 6.66976,2.279907 7.55972,3.684845 0.88997,-1.404938 5.60482,-3.684845 7.55976,-3.684845 2.46991,1.839935 3.68486,5.429779 3.94485,7.634705 2.29195,-0.837097 4.72725,-1.210968 7.16475,-1.099976 0.49999,2.039948 0.26499,4.999848 -0.39999,7.419769 4.31485,-1.96994 8.9397,0.469971 9.88466,1.904908 l 0.04,-0.01999 z m 25.18912,-19.83432 c 3.1649,1.444946 5.44981,5.364837 6.04979,9.199707 -2.14694,-1.014923 -4.50057,-1.516449 -6.87476,-1.464966 -7.16975,0 -16.18443,3.999878 -24.34915,7.604767 -1.36632,-1.014466 -2.98528,-1.633698 -4.67982,-1.789948 8.2397,-2.534912 24.43414,-11.499603 25.6241,-17.289398 0.79496,-3.854889 -1.71995,-5.329803 -1.71995,-5.329803 -3.60487,5.884796 -12.88955,14.99945 -25.27911,19.579284 0.0253,-1.231262 -0.10406,-2.460815 -0.38499,-3.659881 0,0 -2.49991,-0.61496 -7.85973,0.309997 4.66983,-3.899872 16.93941,-17.664368 18.26936,-28.108978 0.88997,-6.974762 -3.99986,-7.294769 -3.99986,-7.294769 -0.69498,10.499633 -6.19478,21.339264 -16.12443,32.238891 0,0 -1.62494,-2.554931 -3.78988,-3.839905 -2.37811,0.476715 -4.65095,1.377716 -6.70974,2.659913 1.16995,-13.834504 1.86493,-31.808838 1.13495,-37.253663 -0.49999,-3.784851 -2.7099,-5.374816 -2.7099,-5.374816 0,0 -2.20493,1.589965 -2.70992,5.374816 -0.72496,5.444825 -0.035,23.419159 1.13498,37.253663 -2.05881,-1.282197 -4.33166,-2.183198 -6.70978,-2.659913 -2.15991,1.284974 -3.78985,3.839905 -3.78985,3.839905 -9.94464,-10.879638 -15.44446,-21.729248 -16.14444,-32.218872 0,0 -4.86983,0.319977 -3.99985,7.294739 1.32994,10.44461 13.59952,24.209137 18.26935,28.109009 -5.33982,-0.924958 -7.85472,-0.309998 -7.85472,-0.309998 -0.28431,1.198547 -0.41535,2.428314 -0.39,3.659851 -12.38956,-4.569824 -21.67423,-13.694488 -25.2791,-19.579284 0,0 -2.49991,1.499938 -1.71994,5.329803 1.18995,5.76477 17.38438,14.754486 25.6241,17.289398 -1.69457,0.15625 -3.31352,0.775482 -4.67984,1.789948 -8.16471,-3.614899 -17.17439,-7.604767 -24.34914,-7.604767 -2.37419,-0.05148 -4.72781,0.450043 -6.87475,1.464966 0.59997,-3.83487 2.88488,-7.754731 6.04979,-9.199677 -11.07962,-7.794708 -4.23986,-26.069092 -19.09934,-22.634216 8.2897,-15.38443 25.04912,-16.929382 25.04912,-16.929382 -3.69487,8.139709 0.95497,32.963836 23.17918,44.253448 C 162.03648,51.26825 155.80171,34.713806 159.43158,23.039215 162.76646,12.319611 173.60107,7.979767 181.76079,7.789764 175.991,25.51413 179.54587,45.788422 191.52045,58.582977 186.39062,44.583466 179.17587,7.174774 200.02014,3.1e-5 c 20.82927,7.174743 13.61452,44.573455 8.49971,58.582946 11.97458,-12.774536 15.52944,-33.068847 9.75964,-50.793213 8.15972,0.190003 18.99933,4.529847 22.32923,15.249451 3.63486,11.674591 -2.60492,28.229035 -16.29944,41.883545 22.19421,-11.289612 26.84406,-36.113739 23.1292,-44.253448 0,0 16.7644,1.544952 25.0491,16.929382 -14.85947,-3.434876 -8.01971,14.839508 -19.09932,22.634216 l 0.04,-0.02002 z M 99.50869,194.17819 c 5.21314,0.85072 10.25874,2.52133 14.94947,4.94982 0.72997,-3.34987 2.7449,-9.52965 4.54485,-12.83953 4.99981,4.75981 11.56958,6.71475 17.72436,5.67479 7.67973,-1.29996 12.49957,-6.2548 15.82945,-10.49965 0,15.49945 -3.49989,27.36905 -5.03984,31.45891 24.27416,1.12495 43.83347,7.99971 52.49816,12.41956 8.65469,-4.41985 28.21901,-11.29461 52.49815,-12.41956 -1.49995,-4.08986 -5.03981,-15.95946 -5.03981,-31.45891 3.33987,4.24485 8.15471,9.19969 15.83444,10.49965 6.14978,1.03996 12.70957,-0.91498 17.71939,-5.67479 1.80493,3.30988 3.81488,9.49965 4.54483,12.83953 4.68485,-2.42572 9.72342,-4.09624 14.92948,-4.94982 0.5,4.43984 0.93997,10.53462 0.29001,15.38445 5.11981,-0.15999 10.92459,-0.23499 16.6094,0.58998 -0.90997,4.16485 -4.49985,11.1546 -6.86475,15.03447 5.07981,1.60495 11.72458,3.99986 14.99946,5.95479 -3.23581,4.25468 -6.83414,8.22104 -10.75461,11.85458 3.90985,2.66991 9.73465,7.58473 12.23956,10.43463 -3.95486,2.63989 -9.83966,5.49982 -14.4295,7.24475 6.27978,9.03967 6.83978,23.55914 6.10479,29.41394 -6.17978,-14.35449 -21.85421,-27.14902 -31.99887,-33.55377 -4.62484,-2.91992 -2.93991,-8.46472 -1.45996,-10.91963 13.81452,-22.96419 -11.29962,-40.0786 -33.99881,-28.69901 4.94983,-0.055 9.94467,4.15486 10.63965,7.90973 -1.57495,-1.35995 -7.99974,-0.61497 -9.91968,1.14496 2.91991,1.52995 3.61489,3.0799 3.76488,4.52985 -3.60988,-2.21993 -10.91463,-2.52491 -13.06955,1.22496 -11.99959,0.32498 -19.9543,9.68466 -20.83926,12.38955 -0.88997,-2.87489 -2.31992,-7.89972 -2.79491,-12.85455 -3.24988,2.20493 -8.79968,7.18976 -11.69458,13.94952 -3.284,-4.72807 -5.76712,-9.96459 -7.34975,-15.49945 -1.58261,5.53486 -4.06575,10.77138 -7.34974,15.49945 -2.8949,-6.75976 -8.44469,-11.74459 -11.69458,-13.94952 -0.49999,4.95483 -1.90493,9.99967 -2.7949,12.85455 -0.87997,-2.70489 -8.8547,-12.06457 -20.83927,-12.38955 -2.15493,-3.74987 -9.45467,-3.44489 -13.06954,-1.22496 0.15,-1.44995 0.84497,-2.9999 3.76486,-4.52985 -1.89993,-1.75993 -8.34469,-2.49991 -9.91464,-1.14496 0.68997,-3.75487 5.68981,-7.96472 10.63463,-7.90973 -22.67921,-11.37959 -47.79332,5.73482 -33.99881,28.69901 1.49995,2.45491 3.16489,7.99971 -1.45995,10.91963 -10.13464,6.40475 -25.809085,19.19928 -31.998867,33.55377 -0.734977,-5.8548 -0.175003,-20.37427 6.104783,-29.41394 -4.589844,-1.75494 -10.474633,-4.60486 -14.429497,-7.24475 2.499916,-2.8499 8.329712,-7.76472 12.239578,-10.43463 -3.900772,-3.64194 -7.480553,-7.61314 -10.699631,-11.86958 3.299889,-1.96492 9.944649,-4.34984 14.999474,-5.95479 -2.344917,-3.87987 -5.954788,-10.86961 -6.864754,-15.03447 5.684799,-0.82497 11.499596,-0.74997 16.609413,-0.58998 -0.629982,-4.83483 -0.204994,-10.9196 0.294991,-15.36945 z m 176.92878,-55.75302 c -4.89984,10.18964 -15.87946,13.77948 -27.17905,13.03452 0.20499,-2.07993 0.40998,-4.10486 0.60997,-6.05478 4.68737,-0.4072 9.092,-2.41443 12.47457,-5.68482 7.12475,-7.12472 6.25479,-17.87436 0,-21.9992 0.72998,-8.22971 -5.95481,-13.32453 -12.04459,-13.64951 -1.22496,-1.99994 -3.59987,-4.454864 -8.2747,-5.069854 2.9799,-6.324768 9.97967,-9.869629 16.23945,-9.36966 -1.21496,5.034821 -0.53,9.304688 0.17499,12.449584 5.4148,-3.904875 11.32959,-4.449858 17.0744,-2.469908 -3.84985,5.144808 -3.3649,13.369508 -3.3649,13.369508 4.43985,-1.70493 12.53458,-2.99988 17.1644,2.21994 -8.5097,5.33481 -8.1047,13.31451 -12.87454,23.22418 z m -30.37895,-34.06381 c -3.64876,0.77701 -6.87702,2.88577 -9.05468,5.91476 -2.39129,-0.15274 -4.78155,0.31397 -6.93975,1.35498 0.93997,-9.77466 11.49958,-11.25461 15.99443,-7.26974 z m 12.81956,11.6846 c -3.93114,-1.07718 -8.12489,-0.61774 -11.7296,1.28494 -1.04152,-0.77371 -1.89586,-1.7716 -2.49991,-2.91989 -1.99789,-0.32736 -4.0382,-0.2952 -6.02479,0.095 0.86996,-2.62991 4.80484,-6.99975 10.59964,-6.99975 5.79478,0 9.52966,4.12484 9.65466,8.5397 z m -4.12486,2.90988 c 5.02983,0 9.08968,3.16989 9.08968,8.9997 0,7.58972 -6.38978,12.99954 -13.60953,13.8945 0.38499,-3.77488 0.70498,-7.05475 0.88997,-9.72467 2.70491,1.63995 7.20976,0.08 6.88478,-3.65488 -1.60495,1.63995 -4.27986,2.08496 -5.72481,0.64001 -0.79498,-0.79498 -1.16997,-1.95492 -0.93497,-4.02987 -1.98283,-0.92444 -4.09854,-1.53183 -6.26979,-1.79996 1.23549,-1.33871 2.73015,-2.41238 4.39325,-3.15582 1.6631,-0.74344 3.45993,-1.14118 5.28142,-1.16901 z m -15.35947,7.39475 c 0.88489,-2.72632 2.51454,-5.15088 4.70484,-6.99976 -0.54912,-0.5032 -1.05118,-1.05548 -1.49994,-1.64993 -3.99987,-0.22 -8.37972,1.76492 -8.37972,1.76492 0.0496,-1.43622 0.21678,-2.86597 0.49999,-4.27484 h -13.44953 c -11.3396,0 -18.02436,-6.21478 -21.28425,-11.0596 -3.25489,4.84482 -9.94464,11.0596 -21.27925,11.0596 h -13.44953 c 0.2818,1.40912 0.44901,2.83871 0.49999,4.27484 0,0 -4.37986,-1.99991 -8.3797,-1.76492 -0.44876,0.59445 -0.95082,1.14673 -1.49996,1.64993 2.19031,1.84888 3.81995,4.27344 4.70484,6.99976 -2.83132,-0.0171 -5.65244,0.34106 -8.3897,1.06497 -0.31999,6.39975 3.82987,32.99881 3.82987,54.02807 0,16.29943 -3.83986,28.27401 -3.83986,28.27401 28.07901,1.90992 47.8233,11.69958 47.8233,11.69958 0,0 19.74932,-9.77466 47.79332,-11.69958 0,0 -3.84486,-11.97458 -3.84486,-28.27401 0,-21.04925 4.15484,-47.62832 3.82986,-54.02807 -2.73727,-0.72391 -5.55838,-1.08203 -8.38971,-1.06497 z m -36.03871,47.36831 c 9.15967,9.88965 15.32944,18.24936 17.20938,20.1243 2.7199,2.7249 7.96472,-0.99997 9.28467,-4.16486 l -4.61983,-4.61984 c 2.28493,-2.02994 5.24481,-3.52487 6.99976,-1.77493 2.4349,2.43991 1.17494,7.66974 -2.81992,11.65959 -3.29988,3.29988 -7.33973,5.2048 -11.44958,5.41481 -1.83495,-6.18979 -8.4397,-14.99948 -14.60448,-22.10922 z m 23.99915,16.28444 c -1.11997,1.63493 -4.17986,3.61485 -5.36483,2.4299 -1.03996,-1.03996 -0.20999,-3.59987 1.83994,-5.95479 z m -23.99915,-27.08903 c 10.63461,10.4096 21.76422,15.63443 25.26909,17.85934 -1.75493,0.49997 -3.66986,1.68497 -5.5398,3.5549 -1.57383,1.50318 -2.73287,3.38724 -3.36488,5.46979 -1.45495,-1.68994 -7.61473,-9.73465 -16.36441,-18.99933 z m -14.4995,21.11422 -7.83973,-7.83972 10.58964,-7.42972 c 1.18495,1.09995 3.68486,3.59986 4.68483,4.68482 z m -4.75984,6.78478 -9.85965,-9.86464 5.11983,-3.58987 8.3347,8.32968 z m -16.9994,-0.47498 -2.60991,0.40998 0.91997,-5.87481 c 0.12407,-0.80001 0.46771,-1.54992 0.99266,-2.16626 0.52494,-0.61633 1.21061,-1.07492 1.98071,-1.3247 0.7701,-0.24979 1.59441,-0.28101 2.38118,-0.0901 0.78677,0.19089 1.50516,0.59631 2.07519,1.1712 l 9.72966,9.72966 c 0.57396,0.56833 0.97959,1.28429 1.17205,2.06876 0.19244,0.78445 0.16421,1.60684 -0.0816,2.37626 -0.24577,0.76943 -0.69955,1.45591 -1.31113,1.98354 -0.61157,0.52762 -1.35714,0.87584 -2.15428,1.00618 l -5.87479,0.91997 0.40999,-2.60991 c -0.31999,0.075 -8.99969,1.39996 -8.99969,1.39996 0,0 1.32495,-8.70968 1.40495,-8.99968 h -0.035 z m 12.90954,-50.52824 -4.61982,-4.61981 c -3.17488,1.31994 -6.88976,6.56475 -4.16985,9.28466 2.20992,2.20993 13.37453,10.34964 25.4641,22.30921 v 4.13986 l -1.28496,-1.29495 c -6.73976,-6.73978 -21.57424,-19.84931 -30.71391,-22.56421 0.20999,-4.10986 2.11491,-8.14969 5.41479,-11.45459 3.99986,-3.99985 9.21968,-5.24982 11.65959,-2.81491 1.74994,1.76495 0.25,4.72983 -1.74994,7.01474 z m -6.76475,3.60489 h -0.06 c -0.0767,-0.0294 -0.15181,-0.0628 -0.22499,-0.10001 l -0.075,-0.04 c -0.0907,-0.0549 -0.17463,-0.12033 -0.25,-0.19494 v 0 c -0.136,-0.13968 -0.2341,-0.3118 -0.28499,-0.5 0,0 0,-0.04 0,-0.065 -0.0177,-0.0705 -0.0294,-0.14245 -0.035,-0.21499 -0.0127,-0.76401 0.20325,-1.51441 0.62,-2.15491 v 0 c 0.53299,-0.95532 1.26229,-1.78686 2.13992,-2.43991 v 0 l 3.52487,3.49988 c -2.01494,1.73993 -4.13484,2.59488 -5.37981,2.2099 h 0.025 z m 11.04962,-6.99976 c 1.79494,2.82492 5.5448,10.61963 12.38956,19.10434 v 8.46469 c -10.25464,-9.96463 -19.57932,-17.08438 -21.41426,-18.66433 2.08256,-0.63202 3.96664,-1.79105 5.46981,-3.36487 1.84493,-1.86994 3.0449,-3.78488 3.52988,-5.53983 h 0.025 z m 17.10939,-3.49988 v 0.03 c 1.4926,0.31504 2.83121,1.1344 3.79071,2.32038 0.9595,1.18594 1.48138,2.6661 1.47786,4.19159 -0.004,1.52548 -0.53223,3.00323 -1.49719,4.18475 -0.96497,1.18149 -2.30733,1.99469 -3.80138,2.30282 v 32.34888 c -1.76494,0 -2.69992,-1.31494 -2.69992,-3.77487 V 145.9249 c -1.4933,-0.31159 -2.83377,-1.1279 -3.79599,-2.31162 -0.96222,-1.18372 -1.48749,-2.66269 -1.48749,-4.18814 0,-1.52548 0.52527,-3.00446 1.48749,-4.18817 0.96222,-1.18375 2.30269,-2 3.79599,-2.31162 -0.68497,-2.4999 -1.40494,-4.40985 -3.40488,-8.23971 -0.16575,-0.3176 -0.19856,-0.68802 -0.0912,-1.02979 0.10736,-0.34176 0.34612,-0.62689 0.6637,-0.79263 0.31758,-0.16577 0.688,-0.19858 1.02977,-0.0912 0.34178,0.10736 0.62691,0.3461 0.79266,0.66367 0.87828,1.64114 1.67098,3.32669 2.37491,5.04983 0.70393,-1.72314 1.49664,-3.40869 2.37492,-5.04983 0.16576,-0.31757 0.45087,-0.55631 0.79265,-0.66367 0.34177,-0.10736 0.71219,-0.0746 1.02977,0.0912 0.3176,0.16574 0.55634,0.45087 0.6637,0.79263 0.10736,0.34177 0.0746,0.71219 -0.0912,1.02979 -2.02494,3.81485 -2.73992,5.74478 -3.42989,8.21469 l 0.025,0.015 z m 7.90472,15.04447 7.83973,7.83475 -10.55964,7.4147 c -0.88496,-0.79996 -2.34991,-2.21491 -3.20489,-3.11987 v -3.68988 z m 4.75983,-6.78473 9.85965,9.85962 -5.14482,3.59488 -8.3347,-8.3497 z m 16.99941,0.49997 2.6099,-0.40997 -0.91996,5.87478 c -0.12407,0.80002 -0.4677,1.54993 -0.99265,2.16626 -0.52495,0.61634 -1.21065,1.07492 -1.98073,1.32471 -0.77009,0.24978 -1.5944,0.28097 -2.38117,0.0901 -0.78678,-0.19089 -1.50515,-0.59629 -2.07519,-1.17118 l -9.77467,-9.76968 c -0.57315,-0.57114 -0.97688,-1.28983 -1.16643,-2.07645 -0.18954,-0.78662 -0.15747,-1.61038 0.0926,-2.37991 0.25011,-0.7695 0.7085,-1.45465 1.32431,-1.97949 0.61582,-0.52487 1.36498,-0.86887 2.1644,-0.99387 l 5.86978,-0.91998 -0.40498,2.60992 c 0.31499,-0.075 8.99968,-1.40493 8.99968,-1.40493 0,0 -1.32996,8.68466 -1.42494,8.99465 l 0.06,0.045 z" /></g></g></svg>